<svg xmlns="http://www.w3.org/2000/svg" width="203.24001" height="32.93" viewBox="0 0 53.773917 8.7127295"><g fill="#ec7000"><path d="m4.284 8.207-2.67-3.704v3.704H0V.762h1.614v3.455L4.26.762h2.095L3.458 4.411l2.974 3.796zm8.67-.616a1.892 1.892 0 0 1-1.44.616H7.042V.762h4.19a1.868 1.868 0 0 1 1.405.59 1.794 1.794 0 0 1 .567 1.257c0 .029-.03.238-.09.632a1.632 1.632 0 0 1-.643 1.04 2.035 2.035 0 0 1 1.058 1.826 2.077 2.077 0 0 1-.582 1.484m-4.46-3.9h2.169a.841.841 0 0 0 .592-.24.767.767 0 0 0 .265-.575.754.754 0 0 0-.265-.569.86.86 0 0 0-.592-.235h-2.17Zm3.023 2.94a1.058 1.058 0 0 0 .3-.718.952.952 0 0 0-.3-.687.942.942 0 0 0-.677-.3H8.485v2.038h2.347a.897.897 0 0 0 .677-.334m8.536-2.304a2.334 2.334 0 0 1 0 3.207 2.058 2.058 0 0 1-1.55.674H14.31V6.953H18a1.077 1.077 0 0 0 .627-.354.963.963 0 0 0 .264-.664 1.058 1.058 0 0 0-.264-.688.794.794 0 0 0-.627-.31h-1.95a2.058 2.058 0 0 1-1.471-.593 1.94 1.94 0 0 1-.62-1.457 2.048 2.048 0 0 1 .614-1.506 1.995 1.995 0 0 1 1.471-.619h4.104V2.04h-3.635a.963.963 0 0 0-.561.265.767.767 0 0 0-.236.574.701.701 0 0 0 .236.547.794.794 0 0 0 .56.215h1.98a2.053 2.053 0 0 1 1.553.685M25.41 4.784V3h.89v4.445l-.89.003V5.612h-2.068v1.836h-.892V3.003h.892v1.78zM26.945 4.842a2.381 2.381 0 0 1 1.302-.357 1.058 1.058 0 0 1 1.159 1.182v1.781h-.831V7.21a1.217 1.217 0 0 1-.65.238 1.323 1.323 0 0 1-.89-.265.86.86 0 0 1-.296-.695 1.098 1.098 0 0 1 .28-.741 1.13 1.13 0 0 1 .905-.326 1.508 1.508 0 0 1 .651.178v-.09c0-.217-.161-.336-.474-.355a1.622 1.622 0 0 0-.83.177zm1.63 1.717v-.333c-.08-.154-.265-.228-.564-.228-.354.04-.529.177-.56.413-.032.235.206.362.56.384.297 0 .485-.08.564-.236M29.834 8.694V4.572l.829-.09v.238a1.124 1.124 0 0 1 .653-.238 1.386 1.386 0 0 1 1.082.445 1.545 1.545 0 0 1 0 2.074 1.386 1.386 0 0 1-1.082.444.982.982 0 0 1-.653-.238v1.49zm.829-2.995v.479a.648.648 0 0 0 .624.585.794.794 0 0 0 .794-.738c-.021-.553-.286-.842-.794-.86-.376.058-.585.235-.624.529M33.073 8.694V4.572l.828-.09v.238a1.124 1.124 0 0 1 .654-.238 1.378 1.378 0 0 1 1.08.445 1.537 1.537 0 0 1 0 2.074 1.378 1.378 0 0 1-1.08.444.976.976 0 0 1-.654-.238v1.49zM33.9 5.7v.479a.646.646 0 0 0 .624.585.794.794 0 0 0 .794-.738c-.02-.553-.286-.842-.794-.86-.378.058-.584.235-.624.529M38.16 6.424V4.487h.832v2.726a1.474 1.474 0 0 1-.387 1.04 1.289 1.289 0 0 1-.918.441l-.177.019a1.693 1.693 0 0 1-1.127-.492l.386-.437a1.376 1.376 0 0 0 .672.296.693.693 0 0 0 .553-.193.818.818 0 0 0 .167-.547v-.151a1.183 1.183 0 0 1-1.588-.072 1.172 1.172 0 0 1-.296-.793V4.487h.83v1.628a.65.65 0 0 0 .149.46.55.55 0 0 0 .902-.15M42.585 4.81v.839h-1.68v1.873h-.903V3h3.178v.844h-2.275v.966zM47.752 3h.302v4.522h-.905L47.146 4.9 45.79 6.406 44.434 4.9v2.622h-.905V3h.302l1.958 2.23zM49.948 3.463h3.04v.635h-3.04z"/><path d="M49.268 4.768V3.04h.193v1.728a1.54 1.54 0 0 0 .588 1.18 2.307 2.307 0 0 0 2.841 0 1.54 1.54 0 0 0 .588-1.18V3.04h.193v1.728c0 1.016-.987 1.833-2.202 1.836-1.214.003-2.2-.82-2.2-1.836"/><path d="M51.47 6.726c-1.263 0-2.321-.887-2.321-1.958V2.916h.415v1.852a1.418 1.418 0 0 0 .548 1.095 2.199 2.199 0 0 0 2.699 0 1.418 1.418 0 0 0 .548-1.095V2.916h.415v1.852c0 1.058-1.037 1.944-2.313 1.947"/><path d="M49.943 4.08v.206a1.521 1.521 0 1 0 3.04 0V4.08zM53.544 8.207a2.57 2.57 0 0 0-4.152 0zM51.47 0a1.524 1.524 0 0 0-1.527 1.527v1.735h3.04V1.527A1.521 1.521 0 0 0 51.464 0m-1.058 3.085a.172.172 0 1 1 .172-.172.172.172 0 0 1-.172.172m0-.484a.172.172 0 1 1 .172-.172.172.172 0 0 1-.172.172m0-.484a.172.172 0 1 1 .172-.172.172.172 0 0 1-.172.172m0-.485a.172.172 0 1 1 .172-.171.172.172 0 0 1-.172.171m0-.484a.172.172 0 1 1 .172-.172.172.172 0 0 1-.172.172m.529 1.937a.172.172 0 1 1 .172-.172.172.172 0 0 1-.172.172m0-.484a.172.172 0 1 1 .172-.172.172.172 0 0 1-.172.172m0-.484a.172.172 0 1 1 .172-.172.172.172 0 0 1-.172.172m0-.485a.172.172 0 1 1 .172-.171.172.172 0 0 1-.172.171m0-.484a.172.172 0 1 1 .172-.172.172.172 0 0 1-.172.172m0-.484a.172.172 0 1 1 .172-.17.17.17 0 0 1-.172.17m.53 2.421a.172.172 0 1 1 .171-.172.172.172 0 0 1-.172.172m0-.484a.172.172 0 1 1 .172-.172.172.172 0 0 1-.172.172m0-.484a.172.172 0 1 1 .172-.172.172.172 0 0 1-.172.172m0-.485a.172.172 0 1 1 .172-.171.172.172 0 0 1-.172.171m0-.484a.172.172 0 1 1 .172-.172.172.172 0 0 1-.172.172m0-.484a.172.172 0 1 1 .172-.17.17.17 0 0 1-.172.17m.53 2.421a.172.172 0 1 1 .169-.172.172.172 0 0 1-.17.172m0-.484a.172.172 0 1 1 .17-.172.172.172 0 0 1-.17.172m0-.484a.172.172 0 0 1 0-.342.172.172 0 0 1 0 .342m0-.485a.172.172 0 0 1 0-.34.172.172 0 0 1 0 .34m0-.484a.172.172 0 0 1 0-.341.172.172 0 0 1 0 .341m0-.484a.172.172 0 1 1 .17-.17.17.17 0 0 1-.17.17m.53 2.421a.172.172 0 1 1 .169-.172.172.172 0 0 1-.17.172m0-.484a.172.172 0 1 1 .17-.172.172.172 0 0 1-.17.172m0-.484a.172.172 0 0 1 0-.342.172.172 0 0 1 0 .342m0-.485a.172.172 0 0 1 0-.34.172.172 0 0 1 0 .34m0-.484a.172.172 0 0 1 0-.341.172.172 0 0 1 0 .341"/><path d="M51.25 6.665h.442v.815h-.442z"/></g></svg>